<mxfile host="app.diagrams.net" modified="2022-12-02T01:27:39.534Z" agent="5.0 (Windows NT 10.0; Win64; x64) AppleWebKit/537.36 (KHTML, like Gecko) Chrome/107.0.0.0 Safari/537.36" version="20.6.0" etag="nNfYH5ybTJ-Q81Y6qWom" type="github">
  <diagram id="eNkfV0XAbYjv7dDU_iYc" name="第 1 页">
    <mxGraphModel dx="1835" dy="1053" grid="1" gridSize="10" guides="1" tooltips="1" connect="1" arrows="1" fold="1" page="1" pageScale="1" pageWidth="413" pageHeight="291" math="0" shadow="0">
      <root>
        <mxCell id="0" />
        <mxCell id="1" parent="0" />
        <mxCell id="SsoEdK-T8yu-xdgHH_tw-1" value="" style="rounded=0;whiteSpace=wrap;html=1;fillColor=#f5f5f5;fontColor=#333333;strokeColor=#666666;" vertex="1" parent="1">
          <mxGeometry x="-70" y="-190" width="618" height="270" as="geometry" />
        </mxCell>
        <mxCell id="SsoEdK-T8yu-xdgHH_tw-2" value="&lt;font style=&quot;font-size: 18px;&quot;&gt;机构新增&lt;/font&gt;" style="rounded=1;whiteSpace=wrap;html=1;fillColor=#cdeb8b;strokeColor=#36393d;" vertex="1" parent="1">
          <mxGeometry x="-52" y="-100" width="120" height="60" as="geometry" />
        </mxCell>
        <mxCell id="SsoEdK-T8yu-xdgHH_tw-3" value="&lt;font style=&quot;font-size: 18px;&quot;&gt;机构更新&lt;/font&gt;" style="rounded=1;whiteSpace=wrap;html=1;fillColor=#cdeb8b;strokeColor=#36393d;" vertex="1" parent="1">
          <mxGeometry x="98" y="-100" width="120" height="60" as="geometry" />
        </mxCell>
        <mxCell id="SsoEdK-T8yu-xdgHH_tw-4" value="&lt;font style=&quot;font-size: 18px;&quot;&gt;机构移除&lt;/font&gt;" style="rounded=1;whiteSpace=wrap;html=1;fillColor=#cdeb8b;strokeColor=#36393d;" vertex="1" parent="1">
          <mxGeometry x="248" y="-100" width="120" height="60" as="geometry" />
        </mxCell>
        <mxCell id="SsoEdK-T8yu-xdgHH_tw-5" value="&lt;font style=&quot;font-size: 18px;&quot;&gt;机构查询&lt;/font&gt;" style="rounded=1;whiteSpace=wrap;html=1;fillColor=#cdeb8b;strokeColor=#36393d;" vertex="1" parent="1">
          <mxGeometry x="401" y="-100" width="120" height="60" as="geometry" />
        </mxCell>
        <mxCell id="SsoEdK-T8yu-xdgHH_tw-6" value="&lt;font style=&quot;font-size: 18px;&quot;&gt;机构层级&lt;/font&gt;" style="rounded=1;whiteSpace=wrap;html=1;fillColor=#cdeb8b;strokeColor=#36393d;" vertex="1" parent="1">
          <mxGeometry x="98" y="-10" width="120" height="60" as="geometry" />
        </mxCell>
        <mxCell id="SsoEdK-T8yu-xdgHH_tw-7" value="&lt;font style=&quot;font-size: 18px;&quot;&gt;机构人员&lt;/font&gt;" style="rounded=1;whiteSpace=wrap;html=1;fillColor=#cdeb8b;strokeColor=#36393d;" vertex="1" parent="1">
          <mxGeometry x="-52" y="-10" width="120" height="60" as="geometry" />
        </mxCell>
        <mxCell id="SsoEdK-T8yu-xdgHH_tw-8" value="&lt;font style=&quot;font-size: 18px;&quot;&gt;机构模块&lt;/font&gt;" style="rounded=1;whiteSpace=wrap;html=1;fillColor=#cce5ff;strokeColor=#36393d;" vertex="1" parent="1">
          <mxGeometry x="-52" y="-160" width="120" height="40" as="geometry" />
        </mxCell>
        <mxCell id="SsoEdK-T8yu-xdgHH_tw-9" value="&lt;font style=&quot;font-size: 18px;&quot;&gt;机构后台&lt;br&gt;管理功能&lt;/font&gt;" style="rounded=1;whiteSpace=wrap;html=1;fillColor=#ffcccc;strokeColor=#36393d;" vertex="1" parent="1">
          <mxGeometry x="248" y="-10" width="120" height="60" as="geometry" />
        </mxCell>
        <mxCell id="SsoEdK-T8yu-xdgHH_tw-10" value="" style="rounded=0;whiteSpace=wrap;html=1;fillColor=#f5f5f5;fontColor=#333333;strokeColor=#666666;" vertex="1" parent="1">
          <mxGeometry x="-70" y="150" width="620" height="180" as="geometry" />
        </mxCell>
        <mxCell id="SsoEdK-T8yu-xdgHH_tw-11" value="&lt;span style=&quot;font-size: 18px;&quot;&gt;Blade 用户&lt;/span&gt;" style="rounded=1;whiteSpace=wrap;html=1;fillColor=#cdeb8b;strokeColor=#36393d;" vertex="1" parent="1">
          <mxGeometry x="-52" y="240" width="120" height="60" as="geometry" />
        </mxCell>
        <mxCell id="SsoEdK-T8yu-xdgHH_tw-12" value="&lt;font style=&quot;font-size: 18px;&quot;&gt;微信注册&lt;br&gt;&amp;amp;登录&lt;/font&gt;" style="rounded=1;whiteSpace=wrap;html=1;fillColor=#cdeb8b;strokeColor=#36393d;" vertex="1" parent="1">
          <mxGeometry x="230" y="240" width="120" height="60" as="geometry" />
        </mxCell>
        <mxCell id="SsoEdK-T8yu-xdgHH_tw-17" value="&lt;font style=&quot;font-size: 18px;&quot;&gt;用户模块&lt;/font&gt;" style="rounded=1;whiteSpace=wrap;html=1;fillColor=#cce5ff;strokeColor=#36393d;" vertex="1" parent="1">
          <mxGeometry x="-52" y="180" width="120" height="40" as="geometry" />
        </mxCell>
        <mxCell id="SsoEdK-T8yu-xdgHH_tw-21" value="&lt;span style=&quot;font-size: 18px;&quot;&gt;扩展微信&lt;/span&gt;" style="rounded=1;whiteSpace=wrap;html=1;fillColor=#cdeb8b;strokeColor=#36393d;" vertex="1" parent="1">
          <mxGeometry x="86.5" y="240" width="120" height="60" as="geometry" />
        </mxCell>
      </root>
    </mxGraphModel>
  </diagram>
</mxfile>
